# xmcd
#
# Track frame offsets:
#	150
#	23595
#	40649
#	64473
#	88860
#	119194
#	137574
#	172727
#	186891
#	209786
#	234810
#	272503
#
# Disc length: 3950 seconds
#
# Revision: 1
# Processed by: cddbd v1.5.1PL0 Copyright (c) Steve Scherf et al.
# Submitted via: audiograbber 1.83.01
#
DISCID=a60f6c0c
DTITLE=Sándor Márai - Die jungen Rebellen CD5
DYEAR=2001
DGENRE="Hörbuch"
TTITLE0=die jungen REBELLEN CD 5
TTITLE1=die jungen REBELLEN CD 5
TTITLE2=die jungen REBELLEN CD 5
TTITLE3=die jungen REBELLEN CD 5
TTITLE4=die jungen REBELLEN CD 5
TTITLE5=die jungen REBELLEN CD 5
TTITLE6=die jungen REBELLEN CD 5
TTITLE7=die jungen REBELLEN CD 5
TTITLE8=die jungen REBELLEN CD 5
TTITLE9=die jungen REBELLEN CD 5
TTITLE10=die jungen REBELLEN CD 5
TTITLE11=die jungen REBELLEN CD 5
EXTD=
EXTT0=
EXTT1=
EXTT2=
EXTT3=
EXTT4=
EXTT5=
EXTT6=
EXTT7=
EXTT8=
EXTT9=
EXTT10=
EXTT11=
PLAYORDER=
